<svg xmlns="http://www.w3.org/2000/svg" viewBox="0 0 1008 1008"><path fill="#ff7f3f" d="M243 349l-73 265h146zm-50-59h98l1-2q8 0 11 12t29.5 95.5T372 520l48 153q55.5 177 57 180t-3 3h-87q-4.5 0-6-3l-51-167H154q-49.5 165-51 168t-6 3H10q-4 0-3-4 11-35 176-556 3-7 10-7zm561 186l-2 207v1q27-24 58-68.5t45.5-80T861 494q-33-18-95-18h-12zM588 687l18 16q9 6 31 9t55-8l-4-216q-38 14-63 40-44 47-44 109 0 42 7 50zm90-441l-2-117q0-6 9-6h51q9 0 9 8l1 105q157-22 165.25-23.75T921 215q2.2 6.6 4.85 27.8t4.4 27.2-6.25 8l-178 31 1 104h12q87 0 150 36t87 101l5-1q30 83-10.25 177.25T856 885q-8 6-10 3t-18-23-18-22.75 4-7.25q104-72 127-186 13-69-21-115-25 65-61.5 113.5t-68.5 74-74.75 40.5-92.25 9-81.25-42.5T510 635q0-86 61-150 45-48 113-66l-2-102q-121 21-138.25 24.25t-18 .5-1.25-5.25q-2-10-3.5-14.5l-6-27q-3-14-3-16-2-4 8-6z"/></svg>
