<svg xmlns="http://www.w3.org/2000/svg" viewBox="0 0 1008 1008"><path fill="#ff7f3f" d="M673 269l1 1q8 2 8 14v270q0 7.5-6 12-12 5-13 2l-256-87q-10-4-10-13.5t6-14.5l59-42 10-8q-61-45-131-45-123 0-183 108-13 24-36 10l-83-47q-21-10-9-34 48-86 129.5-134.5T341 212q148 0 252 105l4-4 61-44q4-4 15 0zM527 633q14-26 34-9l81 47q22 12 12 34-48 86-130.5 134.5T341 888q-146 0-251-105l-65 48q-1.5 1.5-15 0-10-4-10-15V546q0-10.5 6-12 12-5 15-2l256 87q11 4 11 13t-5 14l-61 42-10 8q61 45 124.5 45t112-29.5T527 633z"/></svg>
