<svg xmlns="http://www.w3.org/2000/svg" viewBox="0 0 1008 1008"><path fill="#ff7f3f" d="M282 262v504l131 70V332zm322 3l6-1 30 17q2 0 2 4v2l-14 22q0 4-2 4l-33-20q-2 0-2-2v-4zm-569 6v504l115 61V332zm617 52l11-21q4.5-4.5 6-3l18 10q14 6 14 23v20q0 4-4 4h-26q-6 0-6-4v-16l-11-8-2-1v-4zm13 83q0-4 6-4h26q4 0 4 4v53q0 4-4 4h-26q-6 0-6-4v-53zm0 107q0-4 6-4h26q4 0 4 4v53q0 4-4 4h-26q-6 0-6-4v-53zm0 106q0-6 6-6h26q4 0 4 6v53q0 4-4 4h-26q-6 0-6-4v-53zm0 104q0-4 6-4h26q4 0 4 4v53q0 6-4 6h-26q-6 0-6-6v-53zm-72 99l11-23q4.5-4.5 6-3l30 16q2 0 2 4v2l-12 23q0 2-4 2h-2l-31-15q-2 0-2-4v-2h2zm-435 48q-3 3-9.5 3t-8.5-2h-2L6 798q-8-5-8-12V247q0-22 28-12l122 67 122-67h2v-2h15l2 2 122 67 123-67q7-10 17-3l14 10 14 6q2 0 2 4-2 0-2 2l-12 23q0 2-4 2l-2-2-18-10v497l36 17q4.5 4.5 3 6l-14 24q0 2-4 2h-2l-8-6-10-4-122 67q-2 2-8 2t-8-2l-124-67-123 67h-1zm522 3q-4.049-.439-12-4l-15-8q-2 0-2-4v-2l11-23 2-2 4-2h28q4 0 4 4v19q0 22-20 22z"/></svg>
